PERFORMER "Ajattara"
TITLE "Murhat"
REM DATE 2011
REM GENRE "Black Metal"
FILE "01 - Ajattara - Kunnes Taivas Meidat Erottaa.flac" WAVE
  TRACK 01 AUDIO
    PERFORMER "Ajattara"
    TITLE "Kunnes Taivas Meidät Erottaa"
    INDEX 01 00:00:00
FILE "02 - Ajattara - Ihmisen Luku.flac" WAVE
  TRACK 02 AUDIO
    PERFORMER "Ajattara"
    TITLE "Ihmisen Luku"
    INDEX 01 00:00:00
FILE "03 - Ajattara - H.A.I..flac" WAVE
  TRACK 03 AUDIO
    PERFORMER "Ajattara"
    TITLE "H.A.I."
    INDEX 01 00:00:00
FILE "04 - Ajattara - Aura.flac" WAVE
  TRACK 04 AUDIO
    PERFORMER "Ajattara"
    TITLE "Aura"
    INDEX 01 00:00:00
FILE "05 - Ajattara - Sokea Liha.flac" WAVE
  TRACK 05 AUDIO
    PERFORMER "Ajattara"
    TITLE "Sokea Liha"
    INDEX 01 00:00:00
FILE "06 - Ajattara - Routalempi.flac" WAVE
  TRACK 06 AUDIO
    PERFORMER "Ajattara"
    TITLE "Routalempi"
    INDEX 01 00:00:00
FILE "07 - Ajattara - Murheiden Kilta.flac" WAVE
  TRACK 07 AUDIO
    PERFORMER "Ajattara"
    TITLE "Murheiden Kilta"
    INDEX 01 00:00:00
FILE "08 - Ajattara - Apilas.flac" WAVE
  TRACK 08 AUDIO
    PERFORMER "Ajattara"
    TITLE "Apilas"
    INDEX 01 00:00:00
FILE "09 - Ajattara - Veljet.flac" WAVE
  TRACK 09 AUDIO
    PERFORMER "Ajattara"
    TITLE "Veljet"
    INDEX 01 00:00:00
